# xmcd
#
# Track frame offsets: 
#        150
#        24205
#        45788
#        67333
#        91721
#        111676
#        134014
#        150632
#        168856
#
# Disc length: 2665 seconds
#
# Revision: 0
# Processed by: cddbd v1.5.2PL0 Copyright (c) Steve Scherf et al.
# Submitted via: ExactAudioCopy v1.0b4
#
DISCID=6f0a6709
DTITLE=Sugaray Rayford - Southside
DYEAR=2015
DGENRE=Blues
TTITLE0=Southside of Town
TTITLE1=Miss Thang
TTITLE2=Live to Love Again
TTITLE3=Texas Bluesman
TTITLE4=Take It to the Bank
TTITLE5=Call Off the Mission
TTITLE6=All I Think About
TTITLE7=Take Away These Blues
TTITLE8=Slow Motion
EXTD=
EXTT0=
EXTT1=
EXTT2=
EXTT3=
EXTT4=
EXTT5=
EXTT6=
EXTT7=
EXTT8=
PLAYORDER=
